<svg height='300px' width='300px' fill="#ffffff" xmlns:dc="http://purl.org/dc/elements/1.1/"
     xmlns:cc="http://creativecommons.org/ns#" xmlns:rdf="http://www.w3.org/1999/02/22-rdf-syntax-ns#"
     xmlns:svg="http://www.w3.org/2000/svg" xmlns="http://www.w3.org/2000/svg"
     xmlns:sodipodi="http://sodipodi.sourceforge.net/DTD/sodipodi-0.dtd"
     xmlns:inkscape="http://www.inkscape.org/namespaces/inkscape" viewBox="0 0 8.4666667 8.4666669" version="1.1"
     x="0px" y="0px">
  <svg:g>
    <svg:path
      style="color:#ffffff;font-style:normal;font-variant:normal;font-weight:normal;font-stretch:normal;font-size:medium;line-height:normal;font-family:sans-serif;font-variant-ligatures:normal;font-variant-position:normal;font-variant-caps:normal;font-variant-numeric:normal;font-variant-alternates:normal;font-feature-settings:normal;text-indent:0;text-align:start;text-decoration:none;text-decoration-line:none;text-decoration-style:solid;text-decoration-color:#ffffff;letter-spacing:normal;word-spacing:normal;text-transform:none;writing-mode:lr-tb;direction:ltr;text-orientation:mixed;dominant-baseline:auto;baseline-shift:baseline;text-anchor:start;white-space:normal;shape-padding:0;clip-rule:nonzero;display:inline;overflow:visible;visibility:visible;opacity:1;isolation:auto;mix-blend-mode:normal;color-interpolation:sRGB;color-interpolation-filters:linearRGB;solid-color:#ffffff;solid-opacity:1;vector-effect:none;fill:#ffffff;fill-opacity:1;fill-rule:nonzero;stroke:none;stroke-width:0.52916664;stroke-linecap:round;stroke-linejoin:round;stroke-miterlimit:4;stroke-dasharray:none;stroke-dashoffset:0;stroke-opacity:1;paint-order:normal;color-rendering:auto;image-rendering:auto;shape-rendering:auto;text-rendering:auto;enable-background:accumulate"
      d="m 6.9667583,1.2880533 c -0.015055,-7.6e-5 -0.030104,0.00114 -0.044961,0.00362 L 5.75598,1.5025106 C 5.6045669,1.5307375 5.5091661,1.6818104 5.5487557,1.8306559 L 5.8613979,2.9985433 H 3.3990161 L 3.327703,2.7313761 h 0.1607132 c 0.3531208,0 0.3531208,-0.5296834 0,-0.5296834 -0.3344545,-0.0041 -0.6536717,0 -0.9865016,0 -0.00913,-4.736e-4 -0.018256,-4.736e-4 -0.02739,0 -0.3531208,0.01826 -0.3257312,0.5479432 0.02739,0.5296834 h 0.2769843 l 0.107487,0.4015258 -0.579292,0.9017537 C 2.1039177,3.9445086 1.8802575,3.893579 1.6446011,3.893579 c -0.90429557,0 -1.64279262,0.7379827 -1.64279262,1.6422772 0,0.9042942 0.73849705,1.6427937 1.64279262,1.6427937 0.8007614,0 1.4714828,-0.5795135 1.6148896,-1.3399699 h 0.459404 C 3.8502074,5.8918488 4.0000992,5.832166 4.058924,5.7032877 L 6.0489848,3.6997923 6.1409672,4.0434406 C 5.575132,4.3033778 5.1797863,4.8745582 5.1797863,5.5358562 c 0,0.9042942 0.7379811,1.6427937 1.6422766,1.6427937 0.9042956,0 1.6427953,-0.7384995 1.6427953,-1.6427937 0,-0.9042945 -0.7384997,-1.6422772 -1.6427953,-1.6422772 -0.057946,0 -0.1151308,0.00287 -0.1715664,0.00878 L 6.132699,1.9712158 7.0173995,1.8130859 C 7.3375057,1.7556587 7.2919391,1.2832402 6.9667583,1.2880533 Z M 3.5400946,3.5282267 H 5.4733097 L 3.9493706,5.0609497 Z M 3.0713879,3.8238158 3.4698133,5.3095133 H 3.2713758 C 3.2171548,4.9215532 3.0266071,4.5770721 2.7494429,4.3245603 Z M 1.6446011,4.4206787 c 0.130982,0 0.2545212,0.026667 0.3710384,0.067696 L 1.4099898,5.4304361 C 1.2960708,5.6066915 1.4228485,5.8390713 1.632716,5.83868 H 2.7132717 C 2.5813372,6.3070454 2.1570143,6.6489664 1.6446011,6.6489664 c -0.6183101,0 -1.11362596,-0.4947988 -1.11362596,-1.1131102 0,-0.6183117 0.49531586,-1.1151778 1.11362596,-1.1151775 z m 5.1774618,0 c 0.6183128,0 1.1136286,0.4968658 1.1136286,1.1151775 0,0.6183114 -0.4953158,1.1131102 -1.1136286,1.1131102 -0.6183127,0 -1.11311,-0.4947988 -1.11311,-1.1131102 0,-0.4200197 0.2312247,-0.779693 0.5715424,-0.9699668 l 0.2470123,0.922941 C 6.6134258,5.8409035 7.142521,5.6976735 7.0391033,5.3503377 L 6.7905405,4.4237791 c 0.010742,-2.911e-4 0.020717,-0.0031 0.031522,-0.0031 z M 2.459023,4.7767293 c 0.1365435,0.146536 0.2357093,0.3283381 0.2775029,0.532784 H 2.1169247 Z"></svg:path>
  </svg:g>
</svg>
