<svg height='300px' width='300px'  fill="#ef6c00" xmlns="http://www.w3.org/2000/svg" xmlns:xlink="http://www.w3.org/1999/xlink" xml:space="preserve" version="1.1" style="shape-rendering:geometricPrecision;text-rendering:geometricPrecision;image-rendering:optimizeQuality;" viewBox="0 0 314 292" x="0px" y="0px" fill-rule="evenodd" clip-rule="evenodd"><defs><style type="text/css">

    .fil0 {fill:#ef6c00}

  </style></defs><g><path class="fil0" d="M36 216c0,14 6,26 15,33l0 28c0,9 6,15 15,15l15 0c9,0 15,-6 15,-15l0 -16 121 0 0 16c0,9 6,15 16,15l15 0c9,0 15,-6 15,-15l0 -28c9,-7 15,-19 15,-33l0 -151c0,-87 -242,-87 -242,0l0 151zm-30 -132l20 0 0 62 -13 0c-7,0 -13,-6 -13,-13l0 -42c0,-4 3,-7 6,-7zm301 0l-19 0 0 62 13 0c7,0 13,-6 13,-13l0 -42c0,-4 -3,-7 -7,-7zm-238 -26l181 0c4,0 8,4 8,9l0 90c0,4 -4,8 -8,8l-181 0c-5,0 -9,-4 -9,-8l0 -90c0,-5 4,-9 9,-9zm57 -30l62 0c12,0 12,19 0,19l-62 0c-13,0 -13,-19 0,-19zm-37 203c-30,0 -30,-45 0,-45 29,0 29,45 0,45zm136 0c-30,0 -30,-45 0,-45 30,0 30,45 0,45z"></path></g></svg>
