<svg height='300px' width='300px' fill="#ef6c00" xmlns="http://www.w3.org/2000/svg" viewBox="0 0 64 64" x="0px" y="0px">
  <title>Package</title>
  <g>
    <path
      d="M57.9918,14.9592a.9941.9941,0,0,0-.0695-.3442c-.0038-.009-.0106-.0159-.0146-.0249a.9993.9993,0,0,0-.1269-.2151l-8-10A.999.999,0,0,0,49,4H15a.999.999,0,0,0-.7808.375l-8,10a.9993.9993,0,0,0-.1269.2151c-.004.009-.0108.0159-.0146.0249a.9941.9941,0,0,0-.0695.3442C6.0076,14.9736,6,14.9855,6,15V59a1,1,0,0,0,1,1H57a1,1,0,0,0,1-1V15C58,14.9855,57.9924,14.9736,57.9918,14.9592ZM54.9194,14H38.82l-1.6-8h11.3ZM27,16H37V26.5859l-1,1L34.707,26.293a.9995.9995,0,0,0-1.414,0L32,27.5859,30.707,26.293a.9994.9994,0,0,0-1.414,0L28,27.5859l-1-1ZM35.18,6l1.6,8H27.22l1.6-8Zm-19.7,0h11.3l-1.6,8h-16.1ZM56,58H8V16H25V27a.9993.9993,0,0,0,.293.707l2,2a.9994.9994,0,0,0,1.414,0L30,28.4141l1.293,1.2929a.9994.9994,0,0,0,1.414,0L34,28.4141l1.293,1.2929a.9995.9995,0,0,0,1.414,0l2-2A.9993.9993,0,0,0,39,27V16H56ZM40.293,47.707a.9994.9994,0,0,1,0-1.414l1.9993-1.9994a1.0033,1.0033,0,0,1,1.4154,0L45.707,46.293a1,1,0,1,1-1.414,1.414L44,47.4141V51a1,1,0,0,1-2,0V47.4141l-.293.2929A.9994.9994,0,0,1,40.293,47.707Zm8,0a.9994.9994,0,0,1,0-1.414l1.9993-1.9994a1.0033,1.0033,0,0,1,1.4154,0L53.707,46.293a1,1,0,1,1-1.414,1.414L52,47.4141V51a1,1,0,0,1-2,0V47.4141l-.293.2929A.9994.9994,0,0,1,48.293,47.707ZM54,55a1,1,0,0,1-1,1H41a1,1,0,0,1,0-2H53A1,1,0,0,1,54,55ZM23,46H11a1,1,0,0,0-1,1v8a1,1,0,0,0,1,1H23a1,1,0,0,0,1-1V47A1,1,0,0,0,23,46Zm-1,8H12V48H22Z"></path>
  </g>
</svg>
