<svg height='300px' width='300px' fill="#ffffff" xmlns="http://www.w3.org/2000/svg"
     xmlns:xlink="http://www.w3.org/1999/xlink" version="1.1" x="0px" y="0px" viewBox="0 0 100 100"
     enable-background="new 0 0 100 100" xml:space="preserve"><g><g><g><g><g><path fill="none" d="M49.999,8.676C27.214,8.676,8.677,27.214,8.677,50c0,22.786,18.538,41.324,41.323,41.324       c22.786,0,41.324-18.538,41.324-41.324C91.323,27.214,72.786,8.676,49.999,8.676z M80.743,62.497H62.497v18.246       c0,1.015-0.823,1.838-1.838,1.838H39.342c-1.015,0-1.838-0.823-1.838-1.838V62.497H19.257c-1.015,0-1.838-0.823-1.838-1.838       V39.342c0-1.015,0.823-1.838,1.838-1.838h18.246V19.257c0-1.015,0.823-1.838,1.838-1.838h21.317       c1.015,0,1.838,0.823,1.838,1.838v18.247h18.246c1.015,0,1.838,0.823,1.838,1.838v21.317       C82.581,61.674,81.758,62.497,80.743,62.497z"></path><path
  fill="none"
  d="M58.82,39.342V21.095H41.18v18.247c0,1.015-0.823,1.838-1.838,1.838H21.096v17.64h18.246       c1.015,0,1.838,0.823,1.838,1.838v18.246h17.64V60.659c0-1.015,0.823-1.838,1.838-1.838h18.246v-17.64H60.658       C59.643,41.181,58.82,40.357,58.82,39.342z"></path><path
  d="M80.743,37.504H62.497V19.257c0-1.015-0.823-1.838-1.838-1.838H39.342c-1.015,0-1.838,0.823-1.838,1.838v18.247H19.257       c-1.015,0-1.838,0.823-1.838,1.838v21.317c0,1.015,0.823,1.838,1.838,1.838h18.246v18.246c0,1.015,0.823,1.838,1.838,1.838       h21.317c1.015,0,1.838-0.823,1.838-1.838V62.497h18.246c1.015,0,1.838-0.823,1.838-1.838V39.342       C82.581,38.327,81.758,37.504,80.743,37.504z M78.904,58.82H60.658c-1.015,0-1.838,0.823-1.838,1.838v18.246H41.18V60.659       c0-1.015-0.823-1.838-1.838-1.838H21.096v-17.64h18.246c1.015,0,1.838-0.823,1.838-1.838V21.095h17.64v18.247       c0,1.015,0.823,1.838,1.838,1.838h18.246V58.82z"></path><path
  d="M49.999,5C25.187,5,5,25.187,5,50C5,74.813,25.187,95,49.999,95C74.813,95,95,74.813,95,50       C95,25.187,74.813,5,49.999,5z M49.999,91.324C27.214,91.324,8.677,72.786,8.677,50c0-22.786,18.538-41.324,41.323-41.324       c22.786,0,41.324,18.538,41.324,41.324C91.323,72.786,72.786,91.324,49.999,91.324z"></path></g></g></g></g></g></svg>
