<svg height='300px' width='300px' fill="#ffffff" xmlns="http://www.w3.org/2000/svg" viewBox="0 0 512 512" x="0px"
     y="0px">
  <path
    d="M120,152h32a7.99977,7.99977,0,0,0,8-8V112a7.99977,7.99977,0,0,0-8-8H120a7.99977,7.99977,0,0,0-8,8v32A7.99977,7.99977,0,0,0,120,152Zm8-32h16v16H128Z"></path>
  <rect x="192" y="224" width="16" height="32"></rect>
  <rect x="304" y="272" width="16" height="32"></rect>
  <path
    d="M395.7749,216.94678a7.9964,7.9964,0,0,0-8.2124.397l-48,32a7.99959,7.99959,0,0,0,0,13.3125l48,32A8,8,0,0,0,400,288V224A8.00016,8.00016,0,0,0,395.7749,216.94678ZM384,273.05176,358.42236,256,384,238.94824Z"></path>
  <path
    d="M376,112a32,32,0,1,0-32-32A32.036,32.036,0,0,0,376,112Zm0-48a16,16,0,1,1-16,16A16.01833,16.01833,0,0,1,376,64Z"></path>
  <polygon
    points="282.343 210.343 268 224.687 253.657 210.343 242.343 221.657 256.687 236 242.343 250.343 253.657 261.657 268 247.313 282.343 261.657 293.657 250.343 279.313 236 293.657 221.657 282.343 210.343"></polygon>
  <path
    d="M208,152h16V136h16a7.99977,7.99977,0,0,0,8-8V112h16a7.99977,7.99977,0,0,0,8-8V80H256V96H240a7.99977,7.99977,0,0,0-8,8v16H216a7.99977,7.99977,0,0,0-8,8Z"></path>
  <rect x="168" y="64" width="40" height="16"></rect>
  <rect x="304" y="120" width="16" height="24"></rect>
  <rect x="304" y="64" width="24" height="16"></rect>
  <rect x="200" y="296" width="24" height="16"></rect>
  <path
    d="M116.93848,303.39111a8,8,0,0,0,8.71826-1.73437L144,283.314l18.34326,18.34278A7.99981,7.99981,0,0,0,176,296l-.00049-40a7.99877,7.99877,0,0,0-2.34326-5.65674l-21.65674-21.65668L152,207.99951A16.01823,16.01823,0,0,1,168,192H352a32.036,32.036,0,0,0,32-32V128H368v32a16.01833,16.01833,0,0,1-16,16H168a32.03646,32.03646,0,0,0-32,31.999l-.00049,20.68744-21.65674,21.6568A7.99881,7.99881,0,0,0,111.99951,256L112,296A8.00015,8.00015,0,0,0,116.93848,303.39111Zm27.061-60.07763,16,16.00048L160,276.686l-10.34326-10.34278a8,8,0,0,0-11.31348,0L128,276.68652l-.00049-17.373Z"></path>
  <path
    d="M488,168H472V152a7.99977,7.99977,0,0,0-8-8H440V24a7.99977,7.99977,0,0,0-8-8H80a7.99977,7.99977,0,0,0-8,8V144H48a7.99977,7.99977,0,0,0-8,8v16H24a7.99977,7.99977,0,0,0-8,8v32a7.99977,7.99977,0,0,0,8,8H40V464a7.99977,7.99977,0,0,0,8,8h8a24,24,0,0,0,48,0h48a24,24,0,0,0,48,0h8a7.99977,7.99977,0,0,0,8-8V432a7.99977,7.99977,0,0,0-8-8H88V376H424v48H304a7.99977,7.99977,0,0,0-8,8v32a7.99977,7.99977,0,0,0,8,8h8a24,24,0,0,0,48,0h48a24,24,0,0,0,48,0h8a7.99977,7.99977,0,0,0,8-8V216h16a7.99977,7.99977,0,0,0,8-8V176A7.99977,7.99977,0,0,0,488,168ZM88,32H424V328H88ZM32,200V184h8v16ZM80,480a8.00917,8.00917,0,0,1-8-8H88A8.00917,8.00917,0,0,1,80,480Zm96,0a8.00917,8.00917,0,0,1-8-8h16A8.00917,8.00917,0,0,1,176,480Zm24-24H56V440H200ZM56,424V160H72V424Zm32-80H217.37622A23.88212,23.88212,0,0,0,216,352v8H88Zm144,16v-8a8.00917,8.00917,0,0,1,8-8h32a8.00917,8.00917,0,0,1,8,8v8Zm64,0v-8a23.88212,23.88212,0,0,0-1.37622-8H424v16ZM440,160h16V424H440ZM336,480a8.00917,8.00917,0,0,1-8-8h16A8.00917,8.00917,0,0,1,336,480Zm96,0a8.00917,8.00917,0,0,1-8-8h16A8.00917,8.00917,0,0,1,432,480Zm24-24H312V440H456Zm24-256h-8V184h8Z"></path>
</svg>
