<svg height='300px' width='300px' fill="#ffffff" xmlns:dc="http://purl.org/dc/elements/1.1/"
     xmlns:cc="http://creativecommons.org/ns#" xmlns:rdf="http://www.w3.org/1999/02/22-rdf-syntax-ns#"
     xmlns:svg="http://www.w3.org/2000/svg" xmlns="http://www.w3.org/2000/svg"
     xmlns:sodipodi="http://sodipodi.sourceforge.net/DTD/sodipodi-0.dtd"
     xmlns:inkscape="http://www.inkscape.org/namespaces/inkscape" version="1.1" x="0px" y="0px" viewBox="0 0 100 100"
     xml:space="preserve"><path d="m 36.772397,26.304715 c -5.854665,0 -10.617788,4.76313 -10.617788,10.61779 0,2.13495 0.635383,4.12257 1.723855,5.78916 l -11.471514,11.4719 c -1.6664,-1.08867 -3.654405,-1.72386 -5.789162,-1.72386 C 4.7631227,52.459705 0,57.222835 0,63.077495 c 0,5.85467 4.7631227,10.61779 10.617788,10.61779 5.854665,0 10.617787,-4.76312 10.617787,-10.61779 0,-2.13534 -0.635941,-4.1239 -1.724999,-5.79069 l 11.471515,-11.47113 c 1.666791,1.08906 3.654963,1.72462 5.790306,1.72462 2.135148,0 4.123713,-0.63556 5.790308,-1.72462 l 11.653473,11.655 c -1.016793,1.62851 -1.606744,3.54942 -1.606744,5.60644 0,5.85467 4.763123,10.61779 10.617788,10.61779 5.854665,0 10.617788,-4.76312 10.617788,-10.61779 0,-2.13495 -0.635383,-4.12276 -1.723855,-5.78916 l 11.471513,-11.4719 c 1.666595,1.08867 3.654982,1.72424 5.789544,1.72424 5.854666,0 10.617788,-4.76312 10.617788,-10.61779 0,-5.85486 -4.763503,-10.6174 -10.618169,-10.6174 -5.854665,0 -10.617787,4.76312 -10.617787,10.61778 0,2.13535 0.635941,4.12372 1.724999,5.79031 l -11.471515,11.47113 c -1.66679,-1.08906 -3.654962,-1.72462 -5.790306,-1.72462 -2.212687,0 -4.269157,0.68095 -5.971885,1.84364 L 45.665949,42.712435 c 1.088863,-1.6666 1.724236,-3.65498 1.724236,-5.78993 0,-5.85466 -4.763123,-10.61779 -10.617788,-10.61779 z m 0,4.3888 c 3.434753,0 6.229377,2.79424 6.229377,6.22899 0,3.43475 -2.794624,6.229 -6.229377,6.229 -3.434557,0 -6.228996,-2.79425 -6.228996,-6.229 0,-3.43456 2.794244,-6.22899 6.228996,-6.22899 z m 52.609434,0 c 3.434558,0 6.228996,2.79424 6.228996,6.22899 0,3.43475 -2.794438,6.229 -6.228996,6.229 -3.434557,0 -6.228995,-2.79425 -6.228995,-6.229 0,-3.43456 2.794243,-6.22899 6.228995,-6.22899 z m -17.894295,7.90974 c -0.56157,2e-5 -1.123103,0.21426 -1.551812,0.64277 l -4.463561,4.46395 c -0.856833,0.85683 -0.856833,2.24621 0,3.10324 0.428709,0.42832 0.98991,0.64239 1.551431,0.64239 0.561717,0 1.123299,-0.21445 1.551813,-0.64277 l 4.463561,-4.46356 c 0.857028,-0.85703 0.857213,-2.24641 3.81e-4,-3.10325 -0.428514,-0.42841 -0.990243,-0.64279 -1.551813,-0.64277 z m -38.513037,14.01896 c -0.56157,0 -1.123298,0.21436 -1.551812,0.64277 l -4.463561,4.46356 c -0.856833,0.85684 -0.857028,2.2466 0,3.10363 0.428514,0.42851 0.990291,0.64277 1.551812,0.64277 0.561522,0 1.123113,-0.21445 1.551432,-0.64277 l 4.463561,-4.46394 c 0.857223,-0.85683 0.857223,-2.24641 0,-3.10325 -0.428514,-0.42841 -0.989861,-0.64277 -1.551432,-0.64277 z m 30.252723,4.22591 c 3.434557,0 6.228996,2.79424 6.228996,6.22899 -1.95e-4,3.43475 -2.794439,6.22938 -6.228996,6.22938 -3.434557,0 -6.229377,-2.79463 -6.229377,-6.22938 0,-3.43475 2.794625,-6.22899 6.229377,-6.22899 z m -52.609434,3.8e-4 c 3.434557,0 6.228995,2.79424 6.228995,6.22899 0,3.43456 -2.794243,6.229 -6.228995,6.229 -3.4347527,0 -6.2289955,-2.79444 -6.2289955,-6.229 0,-3.43475 2.7942428,-6.22899 6.2289955,-6.22899 z"></path></svg>
