<svg height='300px' width='300px' fill="#ffffff" xmlns="http://www.w3.org/2000/svg"
     xmlns:xlink="http://www.w3.org/1999/xlink" viewBox="0 0 100 100" version="1.1" x="0px" y="0px"><title>35</title>
  <desc>Created with Sketch.</desc>
  <g stroke="none" stroke-width="1" fill="none" fill-rule="evenodd">
    <g fill="#ffffff">
      <path
        d="M31.6086471,72.9526786 C29.9002157,72.9526786 28.5102157,74.3451607 28.5102157,76.0566429 C28.5102157,77.768125 29.9002157,79.1604107 31.6086471,79.1604107 C33.3170784,79.1604107 34.7068824,77.768125 34.7068824,76.0566429 C34.7068824,74.3451607 33.3170784,72.9526786 31.6086471,72.9526786 M51.9607843,78.6097625 L80.0794118,78.6097625 L80.0794118,62.1629946 L51.9607843,62.1629946 L51.9607843,78.6097625 Z M82.0401961,58.2346196 L50,58.2346196 C48.9172549,58.2346196 48.0392157,59.1140304 48.0392157,60.1989054 L48.0392157,80.5740482 C48.0392157,81.6589232 48.9172549,82.5383339 50,82.5383339 L82.0401961,82.5383339 C83.1231373,82.5383339 84.0009804,81.6589232 84.0009804,80.5740482 L84.0009804,60.1989054 C84.0009804,59.1140304 83.1231373,58.2346196 82.0401961,58.2346196 L82.0401961,58.2346196 Z M96.0784314,41.8356429 C96.0784314,44.7146964 94.4841176,47.226625 92.1343137,48.5352321 C92.0235294,48.5969107 91.9117647,48.6560357 91.7984314,48.7118214 C91.7823529,48.7196786 91.7668627,48.7285179 91.7507843,48.7361786 C91.6145098,48.8019821 91.4762745,48.862875 91.3364706,48.9204286 C91.3096078,48.931625 91.2819608,48.9420357 91.2547059,48.9528393 C91.1339216,49.0011607 91.0121569,49.0463393 90.8892157,49.0881786 C90.8654902,49.0962321 90.8417647,49.1044821 90.8178431,49.1123393 C90.5188235,49.21075 90.2143137,49.2912857 89.9054902,49.3521786 C89.8970588,49.35375 89.8886275,49.3549286 89.8801961,49.3566964 C89.7415686,49.3836071 89.6017647,49.4058036 89.4615686,49.4248571 C89.427451,49.4295714 89.3931373,49.4338929 89.3588235,49.4380179 C89.2401961,49.4525536 89.1209804,49.46375 89.0013725,49.4727857 C88.9633333,49.4757321 88.9256863,49.4792679 88.887451,49.481625 C88.7358824,49.4906607 88.5837255,49.4963571 88.4313725,49.4963571 C88.3123529,49.4963571 88.1939216,49.492625 88.0762745,49.4873214 C88.0286275,49.4849643 87.9813725,49.481625 87.9339216,49.4782857 C87.8672549,49.4741607 87.8009804,49.4690536 87.734902,49.4631607 C87.6715686,49.4572679 87.6084314,49.4507857 87.5454902,49.4433214 C87.5027451,49.4384107 87.4601961,49.4327143 87.4176471,49.4268214 C87.3382353,49.4162143 87.2588235,49.4052143 87.1798039,49.3920536 C87.177451,49.3916607 87.174902,49.3912679 87.172549,49.3906786 C85.1580392,49.0504643 83.3676471,47.9078393 82.1982353,46.2655 C82.175098,46.2326964 82.1513725,46.2002857 82.1284314,46.1670893 C82.0941176,46.117 82.0607843,46.0657321 82.0272549,46.0146607 C81.9970588,45.9683036 81.9668627,45.9219464 81.9376471,45.8746071 C81.9086275,45.8280536 81.88,45.7811071 81.8519608,45.7337679 C81.82,45.67975 81.7888235,45.6253393 81.7582353,45.5705357 C81.7337255,45.5267321 81.7088235,45.4827321 81.685098,45.4385357 C81.6517647,45.375875 81.62,45.3124286 81.5882353,45.2487857 C81.5686275,45.2098929 81.5482353,45.1711964 81.5296078,45.1317143 C81.482549,45.0329107 81.4372549,44.9333214 81.3939216,44.8323571 C81.3741176,44.7850179 81.3556863,44.7366964 81.3364706,44.6887679 C81.3135294,44.6318036 81.2905882,44.5748393 81.2688235,44.5170893 C81.2462745,44.4569821 81.2252941,44.3956964 81.2043137,44.3346071 C81.1888235,44.2900179 81.1733333,44.245625 81.1588235,44.2004464 C81.1366667,44.1318929 81.1154902,44.06275 81.0952941,43.9930179 C80.8943137,43.3082679 80.7843137,42.584625 80.7843137,41.8356429 L80.7843137,36.9506607 L96.0784314,36.9506607 L96.0784314,41.8356429 Z M91.1992157,53.0876607 L91.1992157,89.8891429 L40.3396078,89.8891429 L40.3396078,60.1987679 C40.3396078,59.1140893 39.4617647,58.2344821 38.3788235,58.2344821 L19.1631373,58.2344821 C18.0803922,58.2344821 17.2023529,59.1140893 17.2023529,60.1987679 L17.2023529,89.8891429 L8.86313725,89.8891429 L8.86313725,53.1031786 C8.88666667,53.108875 8.91039216,53.1126071 8.93392157,53.1181071 C9.10803922,53.1589643 9.28392157,53.1958929 9.46078431,53.2286964 C9.50705882,53.2373393 9.55352941,53.2455893 9.59980392,53.2536429 C9.76647059,53.2823214 9.93431373,53.3070714 10.1033333,53.3286786 C10.1558824,53.3355536 10.2084314,53.3428214 10.2611765,53.3487143 C10.427451,53.3677679 10.594902,53.3819107 10.7633333,53.3936964 C10.814902,53.3972321 10.8664706,53.4027321 10.9184314,53.4054821 C11.1335294,53.4176607 11.3503922,53.4249286 11.5686275,53.4249286 C11.742549,53.4249286 11.9156863,53.419625 12.0882353,53.4117679 C12.1327451,53.4098036 12.177451,53.4078393 12.2219608,53.4052857 C12.3772549,53.39625 12.5321569,53.3850536 12.6860784,53.3699286 C12.7547059,53.36325 12.8227451,53.3548036 12.8913725,53.3469464 C12.9756863,53.337125 13.0596078,53.3263214 13.1433333,53.3145357 C15.9956863,52.9238393 18.5186275,51.4885357 20.3166667,49.406 C20.3178431,49.4048214 20.3186275,49.4038393 20.3196078,49.4026607 C20.4719608,49.2260714 20.62,49.0455536 20.7617647,48.8597321 C20.762549,48.85875 20.7633333,48.8579643 20.7639216,48.8569821 C20.82,48.7835179 20.8747059,48.708875 20.9290196,48.6340357 C20.9723529,48.5747143 21.014902,48.5144107 21.0570588,48.4539107 C21.0968627,48.3969464 21.1378431,48.3409643 21.1764706,48.2832143 C21.215098,48.3407679 21.2558824,48.3965536 21.2954902,48.4535179 C21.3380392,48.5142143 21.3805882,48.5747143 21.4243137,48.6344286 C21.4782353,48.7090714 21.532549,48.783125 21.5886275,48.8563929 C21.5907843,48.8595357 21.5931373,48.8620893 21.5954902,48.8652321 C21.7354902,49.0485 21.8813725,49.2264643 22.0315686,49.4008929 C22.0335294,49.4030536 22.0356863,49.4054107 22.0376471,49.4077679 C23.8356863,51.4893214 26.3580392,52.9238393 29.2094118,53.3145357 C29.2933333,53.3263214 29.3772549,53.337125 29.4617647,53.3469464 C29.5301961,53.3548036 29.5982353,53.36325 29.6668627,53.3699286 C29.8207843,53.3850536 29.9756863,53.39625 30.1309804,53.4052857 C30.1754902,53.4078393 30.2201961,53.4098036 30.2647059,53.4117679 C30.4372549,53.419625 30.6103922,53.4249286 30.7843137,53.4249286 C30.9582353,53.4249286 31.1313725,53.419625 31.3039216,53.4117679 C31.3484314,53.4098036 31.3931373,53.4078393 31.4376471,53.4052857 C31.5929412,53.39625 31.7478431,53.3850536 31.9017647,53.3699286 C31.9703922,53.36325 32.0384314,53.3548036 32.1070588,53.3469464 C32.1913725,53.337125 32.2752941,53.3263214 32.3590196,53.3145357 C35.2113725,52.9238393 37.7343137,51.4885357 39.5323529,49.406 C39.5335294,49.4048214 39.5343137,49.4038393 39.5352941,49.4026607 C39.6876471,49.2260714 39.8356863,49.0455536 39.977451,48.8597321 C39.9782353,48.85875 39.9790196,48.8579643 39.9796078,48.8569821 C40.0356863,48.7835179 40.0903922,48.708875 40.1447059,48.6340357 C40.1880392,48.5747143 40.2305882,48.5144107 40.2727451,48.4539107 C40.312549,48.3969464 40.3535294,48.3409643 40.3921569,48.2832143 C40.4307843,48.3407679 40.4715686,48.3965536 40.5111765,48.4535179 C40.5537255,48.5142143 40.5962745,48.5747143 40.64,48.6344286 C40.6939216,48.7090714 40.7482353,48.783125 40.8043137,48.8563929 C40.8064706,48.8595357 40.8088235,48.8620893 40.8111765,48.8652321 C40.9511765,49.0485 41.0970588,49.2264643 41.2472549,49.4008929 C41.2492157,49.4030536 41.2513725,49.4054107 41.2533333,49.4077679 C43.0513725,51.4893214 45.5737255,52.9238393 48.425098,53.3145357 C48.5090196,53.3263214 48.5929412,53.337125 48.677451,53.3469464 C48.7458824,53.3548036 48.8139216,53.36325 48.882549,53.3699286 C49.0364706,53.3850536 49.1913725,53.39625 49.3466667,53.4052857 C49.3911765,53.4078393 49.4358824,53.4098036 49.4803922,53.4117679 C49.6529412,53.419625 49.8260784,53.4249286 50,53.4249286 C50.1739216,53.4249286 50.3470588,53.419625 50.5196078,53.4117679 C50.5641176,53.4098036 50.6088235,53.4078393 50.6533333,53.4052857 C50.8086275,53.39625 50.9635294,53.3850536 51.117451,53.3699286 C51.1860784,53.36325 51.2541176,53.3548036 51.3227451,53.3469464 C51.4070588,53.337125 51.4909804,53.3263214 51.5747059,53.3145357 C54.4270588,52.9238393 56.95,51.4885357 58.7480392,49.406 C58.7492157,49.4048214 58.75,49.4038393 58.7509804,49.4026607 C58.9033333,49.2260714 59.0513725,49.0455536 59.1931373,48.8597321 C59.1939216,48.85875 59.1947059,48.8579643 59.1952941,48.8569821 C59.2513725,48.7835179 59.3060784,48.708875 59.3603922,48.6340357 C59.4037255,48.5747143 59.4462745,48.5144107 59.4884314,48.4539107 C59.5282353,48.3969464 59.5692157,48.3409643 59.6078431,48.2832143 C59.6464706,48.3407679 59.6872549,48.3965536 59.7268627,48.4535179 C59.7694118,48.5142143 59.8119608,48.5747143 59.8556863,48.6344286 C59.9096078,48.7090714 59.9639216,48.783125 60.02,48.8563929 C60.0221569,48.8595357 60.0245098,48.8620893 60.0268627,48.8652321 C60.1668627,49.0485 60.3127451,49.2264643 60.4629412,49.4008929 C60.464902,49.4030536 60.4670588,49.4054107 60.4690196,49.4077679 C62.2670588,51.4893214 64.7894118,52.9238393 67.6407843,53.3145357 C67.7247059,53.3263214 67.8086275,53.337125 67.8931373,53.3469464 C67.9615686,53.3548036 68.0296078,53.36325 68.0982353,53.3699286 C68.2521569,53.3850536 68.4070588,53.39625 68.5623529,53.4052857 C68.6068627,53.4078393 68.6515686,53.4098036 68.6960784,53.4117679 C68.8686275,53.419625 69.0417647,53.4249286 69.2156863,53.4249286 C69.3896078,53.4249286 69.5627451,53.419625 69.7352941,53.4117679 C69.7798039,53.4098036 69.8245098,53.4078393 69.8690196,53.4052857 C70.0243137,53.39625 70.1792157,53.3850536 70.3331373,53.3699286 C70.4017647,53.36325 70.4698039,53.3548036 70.5384314,53.3469464 C70.6227451,53.337125 70.7066667,53.3263214 70.7903922,53.3145357 C73.6427451,52.9238393 76.1656863,51.4885357 77.9637255,49.406 C77.964902,49.4048214 77.9656863,49.4038393 77.9666667,49.4026607 C78.1190196,49.2260714 78.2670588,49.0455536 78.4088235,48.8597321 C78.4096078,48.85875 78.4103922,48.8579643 78.4109804,48.8569821 C78.4670588,48.7835179 78.5217647,48.708875 78.5760784,48.6340357 C78.6194118,48.5747143 78.6619608,48.5144107 78.7041176,48.4539107 C78.7439216,48.3969464 78.784902,48.3409643 78.8235294,48.2832143 C78.8621569,48.3407679 78.9029412,48.3965536 78.942549,48.4535179 C78.985098,48.5142143 79.0276471,48.5747143 79.0713725,48.6344286 C79.1252941,48.7090714 79.1796078,48.783125 79.2356863,48.8563929 C79.2378431,48.8595357 79.2401961,48.8620893 79.242549,48.8652321 C79.382549,49.0485 79.5284314,49.2264643 79.6786275,49.4008929 C79.6805882,49.4030536 79.6827451,49.4054107 79.6847059,49.4077679 C81.4827451,51.4893214 84.005098,52.9238393 86.8564706,53.3145357 C86.9403922,53.3263214 87.0243137,53.337125 87.1088235,53.3469464 C87.1772549,53.3548036 87.2452941,53.36325 87.3139216,53.3699286 C87.4678431,53.3850536 87.6227451,53.39625 87.7780392,53.4052857 C87.822549,53.4078393 87.8672549,53.4098036 87.9117647,53.4117679 C88.0843137,53.419625 88.257451,53.4249286 88.4313725,53.4249286 C88.6531373,53.4249286 88.8729412,53.4172679 89.0915686,53.4046964 C89.1456863,53.40175 89.1996078,53.39625 89.2535294,53.3923214 C89.4239216,53.3803393 89.5935294,53.3652143 89.7617647,53.3459643 C89.8154902,53.3396786 89.8686275,53.3324107 89.9223529,53.3253393 C90.0982353,53.3025536 90.2729412,53.2760357 90.4460784,53.2453929 C90.487451,53.2379286 90.5288235,53.2308571 90.5701961,53.2231964 C90.7721569,53.1850893 90.9719608,53.1424643 91.17,53.0939464 C91.1796078,53.0917857 91.1894118,53.0900179 91.1992157,53.0876607 L91.1992157,53.0876607 Z M21.1239216,89.8889464 L36.4180392,89.8889464 L36.4180392,62.1630536 L21.1239216,62.1630536 L21.1239216,89.8889464 Z M3.92156863,36.9506607 L19.2156863,36.9506607 L19.2156863,41.8356429 C19.2156863,42.581875 19.1064706,43.3025714 18.9072549,43.9849643 C18.8854902,44.0594107 18.8627451,44.1332679 18.8388235,44.2067321 C18.8264706,44.2454286 18.8131373,44.2837321 18.8,44.3220357 C18.7770588,44.3890179 18.7539216,44.456 18.7294118,44.522 C18.7117647,44.5689464 18.692549,44.6151071 18.6741176,44.6618571 C18.6443137,44.7370893 18.6137255,44.8119286 18.5815686,44.8859821 C18.5462745,44.9673036 18.5101961,45.0480357 18.4723529,45.1279821 C18.4501961,45.1743393 18.4264706,45.2199107 18.4031373,45.2656786 C18.375098,45.3218571 18.3466667,45.3782321 18.3172549,45.433625 C18.2911765,45.4827321 18.2639216,45.5308571 18.2368627,45.579375 C18.2086275,45.6290714 18.1805882,45.6787679 18.1513725,45.727875 C18.1209804,45.7791429 18.0901961,45.8300179 18.0588235,45.8805 C18.0323529,45.9229286 18.005098,45.9647679 17.9780392,46.0064107 C17.9419608,46.0618036 17.9058824,46.117 17.8686275,46.1712143 C17.85,46.1983214 17.8305882,46.2246429 17.8117647,46.2513571 C16.642549,47.9015536 14.8470588,49.0500714 12.8262745,49.390875 C12.8243137,49.3912679 12.822549,49.3916607 12.8203922,49.3920536 C12.7411765,49.4052143 12.6615686,49.4162143 12.5819608,49.4270179 C12.5394118,49.4327143 12.4972549,49.4384107 12.4547059,49.443125 C12.3915686,49.4507857 12.3284314,49.4572679 12.264902,49.4631607 C12.1990196,49.4690536 12.1327451,49.4741607 12.0662745,49.4782857 C12.0188235,49.481625 11.9713725,49.4849643 11.9237255,49.4873214 C11.8058824,49.492625 11.6876471,49.4963571 11.5686275,49.4963571 C11.4178431,49.4963571 11.2676471,49.4908571 11.117451,49.4820179 C11.0792157,49.4796607 11.0409804,49.4759286 11.002549,49.4731786 C10.8864706,49.4645357 10.7709804,49.4537321 10.6552941,49.4397857 C10.6184314,49.4352679 10.5817647,49.43075 10.5452941,49.4258393 C10.4178431,49.4085536 10.2907843,49.3883214 10.1647059,49.36475 C10.1443137,49.3610179 10.1237255,49.3576786 10.1033333,49.3535536 C9.80352941,49.2952143 9.50784314,49.2182143 9.21764706,49.124125 C9.18568627,49.1141071 9.15431373,49.1027143 9.12254902,49.0921071 C9.01588235,49.0561607 8.91,49.0174643 8.80509804,48.9766071 C8.76117647,48.9595179 8.71705882,48.9424286 8.67352941,48.9245536 C8.57705882,48.8850714 8.48176471,48.8426429 8.38686275,48.7990357 C8.34529412,48.7799821 8.30294118,48.7621071 8.26176471,48.7422679 C8.14156863,48.6845179 8.02333333,48.6228393 7.90627451,48.5588036 C5.53392157,47.2566786 3.92156863,44.7313929 3.92156863,41.8356429 L3.92156863,36.9506607 Z M32.0360784,49.3920536 C31.9568627,49.4052143 31.8772549,49.4162143 31.7976471,49.4270179 C31.755098,49.4327143 31.7129412,49.4384107 31.6703922,49.443125 C31.6072549,49.4507857 31.5441176,49.4572679 31.4805882,49.4631607 C31.4147059,49.4690536 31.3484314,49.4741607 31.2819608,49.4782857 C31.2345098,49.481625 31.1870588,49.4849643 31.1394118,49.4873214 C31.0215686,49.492625 30.9033333,49.4963571 30.7843137,49.4963571 C30.6652941,49.4963571 30.5468627,49.492625 30.4292157,49.4873214 C30.3815686,49.4849643 30.3343137,49.481625 30.2868627,49.4782857 C30.2201961,49.4741607 30.1539216,49.4690536 30.0878431,49.4631607 C30.0245098,49.4572679 29.9613725,49.4507857 29.8984314,49.4433214 C29.8556863,49.4384107 29.8131373,49.4327143 29.7705882,49.4268214 C29.6911765,49.4162143 29.6117647,49.4052143 29.5327451,49.3920536 C29.5303922,49.3916607 29.5278431,49.3912679 29.5254902,49.3906786 C27.5109804,49.0504643 25.7205882,47.9078393 24.5511765,46.2655 C24.5280392,46.2326964 24.5043137,46.2002857 24.4813725,46.1670893 C24.4470588,46.117 24.4137255,46.0657321 24.3801961,46.0146607 C24.35,45.9683036 24.3198039,45.9219464 24.2905882,45.8746071 C24.2615686,45.8280536 24.2329412,45.7811071 24.204902,45.7337679 C24.1729412,45.67975 24.1417647,45.6253393 24.1111765,45.5705357 C24.0866667,45.5267321 24.0617647,45.4827321 24.0380392,45.4385357 C24.0047059,45.375875 23.9729412,45.3124286 23.9411765,45.2487857 C23.9215686,45.2098929 23.9011765,45.1711964 23.882549,45.1317143 C23.8354902,45.0329107 23.7901961,44.9333214 23.7468627,44.8323571 C23.7270588,44.7850179 23.7086275,44.7366964 23.6894118,44.6887679 C23.6664706,44.6318036 23.6435294,44.5748393 23.6217647,44.5170893 C23.5992157,44.4569821 23.5782353,44.3956964 23.5572549,44.3346071 C23.5417647,44.2900179 23.5262745,44.245625 23.5117647,44.2004464 C23.4896078,44.1318929 23.4684314,44.06275 23.4482353,43.9930179 C23.2472549,43.3082679 23.1372549,42.584625 23.1372549,41.8356429 L23.1372549,36.9506607 L38.4313725,36.9506607 L38.4313725,41.8356429 C38.4313725,42.581875 38.3221569,43.3025714 38.1229412,43.9849643 C38.1011765,44.0594107 38.0784314,44.1332679 38.0545098,44.2067321 C38.0421569,44.2454286 38.0288235,44.2837321 38.0156863,44.3220357 C37.9927451,44.3890179 37.9696078,44.456 37.945098,44.522 C37.927451,44.5689464 37.9082353,44.6151071 37.8898039,44.6618571 C37.86,44.7370893 37.8294118,44.8119286 37.7972549,44.8859821 C37.7619608,44.9673036 37.7258824,45.0480357 37.6880392,45.1279821 C37.6658824,45.1743393 37.6421569,45.2199107 37.6188235,45.2656786 C37.5907843,45.3218571 37.5623529,45.3782321 37.5329412,45.433625 C37.5068627,45.4827321 37.4796078,45.5308571 37.452549,45.579375 C37.4243137,45.6290714 37.3962745,45.6787679 37.3670588,45.727875 C37.3366667,45.7791429 37.3058824,45.8300179 37.2745098,45.8805 C37.2480392,45.9229286 37.2207843,45.9647679 37.1937255,46.0064107 C37.1576471,46.0618036 37.1215686,46.117 37.0843137,46.1712143 C37.0656863,46.1983214 37.0462745,46.2246429 37.027451,46.2513571 C35.8582353,47.9015536 34.0627451,49.0500714 32.0419608,49.390875 C32.04,49.3912679 32.0382353,49.3916607 32.0360784,49.3920536 L32.0360784,49.3920536 Z M51.2517647,49.3920536 C51.172549,49.4052143 51.0929412,49.4162143 51.0133333,49.4270179 C50.9707843,49.4327143 50.9286275,49.4384107 50.8860784,49.443125 C50.8229412,49.4507857 50.7598039,49.4572679 50.6962745,49.4631607 C50.6303922,49.4690536 50.5641176,49.4741607 50.4976471,49.4782857 C50.4501961,49.481625 50.4027451,49.4849643 50.355098,49.4873214 C50.2372549,49.492625 50.1190196,49.4963571 50,49.4963571 C49.8809804,49.4963571 49.762549,49.492625 49.644902,49.4873214 C49.5972549,49.4849643 49.55,49.481625 49.502549,49.4782857 C49.4358824,49.4741607 49.3696078,49.4690536 49.3035294,49.4631607 C49.2401961,49.4572679 49.1770588,49.4507857 49.1141176,49.4433214 C49.0713725,49.4384107 49.0288235,49.4327143 48.9862745,49.4268214 C48.9068627,49.4162143 48.827451,49.4052143 48.7484314,49.3920536 C48.7460784,49.3916607 48.7435294,49.3912679 48.7411765,49.3906786 C46.7266667,49.0504643 44.9362745,47.9078393 43.7668627,46.2655 C43.7437255,46.2326964 43.72,46.2002857 43.6970588,46.1670893 C43.6627451,46.117 43.6294118,46.0657321 43.5958824,46.0146607 C43.5656863,45.9683036 43.5354902,45.9219464 43.5062745,45.8746071 C43.4772549,45.8280536 43.4486275,45.7811071 43.4205882,45.7337679 C43.3886275,45.67975 43.357451,45.6253393 43.3268627,45.5705357 C43.3023529,45.5267321 43.277451,45.4827321 43.2537255,45.4385357 C43.2203922,45.375875 43.1886275,45.3124286 43.1568627,45.2487857 C43.1372549,45.2098929 43.1168627,45.1711964 43.0982353,45.1317143 C43.0511765,45.0329107 43.0058824,44.9333214 42.962549,44.8323571 C42.9427451,44.7850179 42.9243137,44.7366964 42.905098,44.6887679 C42.8821569,44.6318036 42.8592157,44.5748393 42.837451,44.5170893 C42.814902,44.4569821 42.7939216,44.3956964 42.7729412,44.3346071 C42.757451,44.2900179 42.7419608,44.245625 42.727451,44.2004464 C42.7052941,44.1318929 42.6841176,44.06275 42.6639216,43.9930179 C42.4629412,43.3082679 42.3529412,42.584625 42.3529412,41.8356429 L42.3529412,36.9506607 L57.6470588,36.9506607 L57.6470588,41.8356429 C57.6470588,42.581875 57.5378431,43.3025714 57.3386275,43.9849643 C57.3168627,44.0594107 57.2941176,44.1332679 57.2701961,44.2067321 C57.2578431,44.2454286 57.2445098,44.2837321 57.2313725,44.3220357 C57.2084314,44.3890179 57.1852941,44.456 57.1607843,44.522 C57.1431373,44.5689464 57.1239216,44.6151071 57.1054902,44.6618571 C57.0756863,44.7370893 57.045098,44.8119286 57.0129412,44.8859821 C56.9776471,44.9673036 56.9415686,45.0480357 56.9037255,45.1279821 C56.8815686,45.1743393 56.8578431,45.2199107 56.8345098,45.2656786 C56.8064706,45.3218571 56.7780392,45.3782321 56.7486275,45.433625 C56.722549,45.4827321 56.6952941,45.5308571 56.6682353,45.579375 C56.64,45.6290714 56.6119608,45.6787679 56.5827451,45.727875 C56.5523529,45.7791429 56.5215686,45.8300179 56.4901961,45.8805 C56.4637255,45.9229286 56.4364706,45.9647679 56.4094118,46.0064107 C56.3733333,46.0618036 56.3372549,46.117 56.3,46.1712143 C56.2813725,46.1983214 56.2619608,46.2246429 56.2431373,46.2513571 C55.0739216,47.9015536 53.2784314,49.0500714 51.2576471,49.390875 C51.2556863,49.3912679 51.2539216,49.3916607 51.2517647,49.3920536 L51.2517647,49.3920536 Z M76.8627451,41.8356429 C76.8627451,42.581875 76.7535294,43.3025714 76.5543137,43.9849643 C76.532549,44.0594107 76.5098039,44.1332679 76.4858824,44.2067321 C76.4735294,44.2454286 76.4601961,44.2837321 76.4470588,44.3220357 C76.4241176,44.3890179 76.4009804,44.456 76.3764706,44.522 C76.3588235,44.5689464 76.3396078,44.6151071 76.3211765,44.6618571 C76.2913725,44.7370893 76.2607843,44.8119286 76.2286275,44.8859821 C76.1933333,44.9673036 76.1572549,45.0480357 76.1194118,45.1279821 C76.0972549,45.1743393 76.0735294,45.2199107 76.0501961,45.2656786 C76.0221569,45.3218571 75.9937255,45.3782321 75.9643137,45.433625 C75.9382353,45.4827321 75.9109804,45.5308571 75.8839216,45.579375 C75.8556863,45.6290714 75.8276471,45.6787679 75.7984314,45.727875 C75.7680392,45.7791429 75.7372549,45.8300179 75.7058824,45.8805 C75.6794118,45.9229286 75.6521569,45.9647679 75.624902,46.0064107 C75.5890196,46.0618036 75.5529412,46.117 75.5156863,46.1712143 C75.4970588,46.1983214 75.4776471,46.2246429 75.4588235,46.2513571 C74.2896078,47.9015536 72.4941176,49.0500714 70.4733333,49.390875 C70.4713725,49.3912679 70.4696078,49.3916607 70.467451,49.3920536 C70.3882353,49.4052143 70.3086275,49.4162143 70.2290196,49.4270179 C70.1864706,49.4327143 70.1443137,49.4384107 70.1017647,49.443125 C70.0386275,49.4507857 69.9754902,49.4572679 69.9119608,49.4631607 C69.8460784,49.4690536 69.7798039,49.4741607 69.7133333,49.4782857 C69.6658824,49.481625 69.6184314,49.4849643 69.5707843,49.4873214 C69.4529412,49.492625 69.3347059,49.4963571 69.2156863,49.4963571 C69.0966667,49.4963571 68.9782353,49.492625 68.8605882,49.4873214 C68.8129412,49.4849643 68.7656863,49.481625 68.7182353,49.4782857 C68.6515686,49.4741607 68.5852941,49.4690536 68.5192157,49.4631607 C68.4558824,49.4572679 68.3927451,49.4507857 68.3298039,49.4433214 C68.2870588,49.4384107 68.2445098,49.4327143 68.2019608,49.4268214 C68.122549,49.4162143 68.0431373,49.4052143 67.9641176,49.3920536 C67.9617647,49.3916607 67.9592157,49.3912679 67.9568627,49.3906786 C65.9423529,49.0504643 64.1519608,47.9078393 62.982549,46.2655 C62.9594118,46.2326964 62.9356863,46.2002857 62.9127451,46.1670893 C62.8784314,46.117 62.845098,46.0657321 62.8115686,46.0146607 C62.7813725,45.9683036 62.7511765,45.9219464 62.7219608,45.8746071 C62.6929412,45.8280536 62.6643137,45.7811071 62.6362745,45.7337679 C62.6043137,45.67975 62.5731373,45.6253393 62.542549,45.5705357 C62.5180392,45.5267321 62.4931373,45.4827321 62.4694118,45.4385357 C62.4360784,45.375875 62.4043137,45.3124286 62.372549,45.2487857 C62.3529412,45.2098929 62.332549,45.1711964 62.3139216,45.1317143 C62.2668627,45.0329107 62.2215686,44.9333214 62.1782353,44.8323571 C62.1584314,44.7850179 62.14,44.7366964 62.1207843,44.6887679 C62.0978431,44.6318036 62.074902,44.5748393 62.0531373,44.5170893 C62.0305882,44.4569821 62.0096078,44.3956964 61.9886275,44.3346071 C61.9731373,44.2900179 61.9576471,44.245625 61.9431373,44.2004464 C61.9209804,44.1318929 61.8998039,44.06275 61.8796078,43.9930179 C61.6786275,43.3082679 61.5686275,42.584625 61.5686275,41.8356429 L61.5686275,36.9506607 L76.8627451,36.9506607 L76.8627451,41.8356429 Z M12.9045098,19.7014821 L86.9103922,19.7014821 L94.6329412,33.0220893 L78.8235294,33.0220893 L59.6078431,33.0220893 L40.3921569,33.0220893 L21.1764706,33.0220893 L5.33352941,33.0220893 L12.9045098,19.7014821 Z M13.7254902,15.7729107 L86.4705882,15.7729107 L86.4705882,9.92857143 L13.7254902,9.92857143 L13.7254902,15.7729107 Z M99.9992157,34.9694821 C99.9984314,34.8954286 99.9931373,34.8225536 99.9847059,34.7506607 C99.9819608,34.7294464 99.9782353,34.7088214 99.975098,34.6878036 C99.9658824,34.6284821 99.9545098,34.5699464 99.94,34.5123929 C99.9352941,34.4925536 99.9305882,34.4731071 99.924902,34.4536607 C99.9047059,34.3809821 99.8811765,34.3096786 99.8527451,34.2405357 C99.8515686,34.2377857 99.8507843,34.2352321 99.8498039,34.2324821 C99.8188235,34.1580357 99.7829412,34.0867321 99.7433333,34.0173929 C99.7403922,34.0116964 99.7380392,34.0056071 99.7347059,33.9997143 L90.3852941,17.8729286 C90.3882353,17.82775 90.3921569,17.7831607 90.3921569,17.7371964 L90.3921569,7.96428571 C90.3921569,6.87960714 89.5141176,6 88.4313725,6 L11.7647059,6 C10.6819608,6 9.80392157,6.87960714 9.80392157,7.96428571 L9.80392157,17.2170536 L0.256862745,34.0144464 C0.254509804,34.018375 0.252941176,34.0230893 0.250588235,34.0270179 C0.211960784,34.0961607 0.177254902,34.1676607 0.146862745,34.2415179 C0.142941176,34.2515357 0.139803922,34.2615536 0.135882353,34.2715714 C0.111372549,34.3344286 0.0903921569,34.3984643 0.0723529412,34.4640714 C0.0668627451,34.4837143 0.0617647059,34.5035536 0.0570588235,34.5233929 C0.0429411765,34.582125 0.031372549,34.6420357 0.022745098,34.7027321 C0.02,34.7213929 0.0164705882,34.7398571 0.0141176471,34.7587143 C0.00549019608,34.8335536 0,34.9091786 0,34.986375 L0,41.8356429 C0,45.7577321 1.95666667,49.2284286 4.94156863,51.3262857 L4.94156863,91.8534286 C4.94156863,92.9381071 5.81960784,93.8177143 6.90235294,93.8177143 L19.1631373,93.8177143 L38.3788235,93.8177143 L93.16,93.8177143 C94.2429412,93.8177143 95.1207843,92.9381071 95.1207843,91.8534286 L95.1207843,51.2818929 C98.0703922,49.1795179 100,45.7300357 100,41.8356429 L100,34.986375 L100,34.9844107 C100,34.9795 99.9992157,34.9743929 99.9992157,34.9694821 L99.9992157,34.9694821 Z"></path>
    </g>
  </g>
</svg>
