<svg height='300px' width='300px'  fill="#FFFFFF" xmlns="http://www.w3.org/2000/svg" xmlns:xlink="http://www.w3.org/1999/xlink" version="1.1" x="0px" y="0px" viewBox="0 0 100 100" style="enable-background:new 0 0 100 100;" xml:space="preserve"><path d="M83.6142578,19.7602539C83.6142578,14.378418,79.2353516,10,73.8535156,10S64.09375,14.378418,64.09375,19.7602539  s4.3779297,9.7602539,9.7597656,9.7602539S83.6142578,25.1420898,83.6142578,19.7602539z M66.09375,19.7602539  C66.09375,15.4814453,69.5751953,12,73.8535156,12c4.2792969,0,7.7607422,3.4814453,7.7607422,7.7602539  s-3.4814453,7.7602539-7.7607422,7.7602539C69.5751953,27.5205078,66.09375,24.0390625,66.09375,19.7602539z"></path><path d="M61.7929688,40.0053711l-4.0791016,35.4169922c-0.0332031,0.2832031,0.0566406,0.5668945,0.2470703,0.7797852  c0.1894531,0.2128906,0.4609375,0.3344727,0.7460938,0.3344727h6.34375V89c0,0.5522461,0.4472656,1,1,1h15.6064453  c0.5527344,0,1-0.4477539,1-1V76.5366211H89c0.2851562,0,0.5566406-0.121582,0.7460938-0.3344727  c0.1904297-0.2128906,0.2802734-0.496582,0.2470703-0.7797852l-4.078125-35.4169922  c-0.40625-3.5341797-3.3964844-6.1992188-6.9541016-6.1992188H68.7460938  C65.1884766,33.8061523,62.1992188,36.4711914,61.7929688,40.0053711z M68.7460938,35.8061523h10.2148438  c2.5410156,0,4.6767578,1.9038086,4.9677734,4.4277344l3.9492188,34.3027344h-6.2207031c-0.5527344,0-1,0.4477539-1,1V88H67.0507812  V75.5366211c0-0.5522461-0.4472656-1-1-1h-6.2216797l3.9501953-34.3027344  C64.0703125,37.7099609,66.2050781,35.8061523,68.7460938,35.8061523z"></path><path d="M35.90625,19.7602539C35.90625,14.378418,31.5283203,10,26.1464844,10s-9.7607422,4.378418-9.7607422,9.7602539  s4.3789062,9.7602539,9.7607422,9.7602539S35.90625,25.1420898,35.90625,19.7602539z M18.3857422,19.7602539  C18.3857422,15.4814453,21.8671875,12,26.1464844,12c4.2783203,0,7.7597656,3.4814453,7.7597656,7.7602539  s-3.4814453,7.7602539-7.7597656,7.7602539C21.8671875,27.5205078,18.3857422,24.0390625,18.3857422,19.7602539z"></path><path d="M14.0849609,40.0053711l-4.078125,35.4169922c-0.0332031,0.2832031,0.0566406,0.5668945,0.2470703,0.7797852  C10.4433594,76.4150391,10.7148438,76.5366211,11,76.5366211h6.3427734V89c0,0.5522461,0.4472656,1,1,1h15.6064453  c0.5527344,0,1-0.4477539,1-1V76.5366211h6.34375c0.2851562,0,0.5566406-0.121582,0.7460938-0.3344727  c0.1904297-0.2128906,0.2802734-0.496582,0.2470703-0.7797852l-4.0791016-35.4169922  c-0.40625-3.5341797-3.3955078-6.1992188-6.953125-6.1992188H21.0390625  C17.4814453,33.8061523,14.4912109,36.4711914,14.0849609,40.0053711z M21.0390625,35.8061523h10.2148438  c2.5410156,0,4.6757812,1.9038086,4.9667969,4.4277344l3.9501953,34.3027344h-6.2216797c-0.5527344,0-1,0.4477539-1,1V88H19.3427734  V75.5366211c0-0.5522461-0.4472656-1-1-1h-6.2207031l3.9492188-34.3027344  C16.3623047,37.7099609,18.4980469,35.8061523,21.0390625,35.8061523z"></path><path d="M45.5361328,24.7753906c-0.390625-0.390625-1.0234375-0.390625-1.4140625,0l-5.0166016,5.0166016  c-0.390625,0.390625-0.390625,1.0234375,0,1.4140625l5.0166016,5.0170898  c0.1953125,0.1953125,0.4511719,0.2929688,0.7070312,0.2929688s0.5117188-0.0976562,0.7070312-0.2929688  c0.390625-0.390625,0.390625-1.0234375,0-1.4140625l-3.3096924-3.3100586h15.5471191l-3.3096924,3.3100586  c-0.390625,0.390625-0.390625,1.0234375,0,1.4140625c0.1953125,0.1953125,0.4511719,0.2929688,0.7070312,0.2929688  s0.5117188-0.0976562,0.7070312-0.2929688l5.0166016-5.0170898c0.390625-0.390625,0.390625-1.0234375,0-1.4140625  l-5.0166016-5.0166016c-0.390625-0.390625-1.0234375-0.390625-1.4140625,0s-0.390625,1.0234375,0,1.4140625l3.3095703,3.3095703  h-15.546875l3.3095703-3.3095703C45.9267578,25.7988281,45.9267578,25.1660156,45.5361328,24.7753906z"></path></svg>
